<?xml version="1.0" encoding="utf-8"?>
<!-- Svg Vector Icons : http://www.onlinewebfonts.com/icon -->
<!DOCTYPE svg PUBLIC "-//W3C//DTD SVG 1.1//EN" "http://www.w3.org/Graphics/SVG/1.1/DTD/svg11.dtd">
<svg version="1.1" xmlns="http://www.w3.org/2000/svg" xmlns:xlink="http://www.w3.org/1999/xlink" x="0px" y="0px" viewBox="0 0 1000 1000" enable-background="new 0 0 1000 1000" xml:space="preserve">
<metadata> Svg Vector Icons : http://www.onlinewebfonts.com/icon </metadata>
<g><path d="M231.6,406.5c0,141.1,114.4,255.4,255.4,255.4c141.1,0,255.4-114.4,255.4-255.4C742.5,265.4,628.1,151,487,151C345.9,151,231.6,265.4,231.6,406.5L231.6,406.5z"/><path d="M796.5,573.6c27.7-50.3,43.6-108.2,43.6-169.7c0-194.5-157.7-352.2-352.2-352.2c-194.5,0-352.2,157.7-352.2,352.2c0,67.9,19.5,131.1,52.8,184.8L10,767.2l159.5,21.6l21.6,159.5l204.7-204.7c29.4,7.9,60.1,12.5,92,12.5c38.8,0,76-6.5,110.8-18l210.2,210.2l21.6-159.5L990,767.2L796.5,573.6z M236.4,857.8l-11.5-124.3l-124.3-11.6l106.2-106.2c39.4,52.2,92.8,93,154.9,116.8L236.4,857.8z M489,702.2c-164.4,0-297.8-133.3-297.8-297.8c0-164.4,133.3-297.8,297.8-297.8c164.4,0,297.8,133.3,297.8,297.8C786.8,568.9,653.5,702.2,489,702.2z M775.1,733.4l-11.5,124.3L631.2,725.4c60.1-26.8,111.4-69.8,148-123.7l120.1,120.1L775.1,733.4z"/></g>
</svg>